<?xml version="1.0" encoding="UTF-8" standalone="no"?>
<!-- Generator: Adobe Illustrator 18.0.0, SVG Export Plug-In . SVG Version: 6.00 Build 0)  -->

<svg
   xmlns:dc="http://purl.org/dc/elements/1.1/"
   xmlns:cc="http://creativecommons.org/ns#"
   xmlns:rdf="http://www.w3.org/1999/02/22-rdf-syntax-ns#"
   xmlns:svg="http://www.w3.org/2000/svg"
   xmlns="http://www.w3.org/2000/svg"
   xmlns:sodipodi="http://sodipodi.sourceforge.net/DTD/sodipodi-0.dtd"
   xmlns:inkscape="http://www.inkscape.org/namespaces/inkscape"
   version="1.1"
   id="Capa_1"
   x="0px"
   y="0px"
   viewBox="0 0 198.233 198.233"
   style="enable-background:new 0 0 198.233 198.233;"
   xml:space="preserve"
   sodipodi:docname="arrow-svgrepo-com.svg"
   inkscape:version="0.92.5 (2060ec1f9f, 2020-04-08)"><metadata
   id="metadata41"><rdf:RDF><cc:Work
       rdf:about=""><dc:format>image/svg+xml</dc:format><dc:type
         rdf:resource="http://purl.org/dc/dcmitype/StillImage" /></cc:Work></rdf:RDF></metadata><defs
   id="defs39" /><sodipodi:namedview
   pagecolor="#ffffff"
   bordercolor="#666666"
   borderopacity="1"
   objecttolerance="10"
   gridtolerance="10"
   guidetolerance="10"
   inkscape:pageopacity="0"
   inkscape:pageshadow="2"
   inkscape:window-width="2256"
   inkscape:window-height="1398"
   id="namedview37"
   showgrid="false"
   inkscape:zoom="1.1905182"
   inkscape:cx="99.116501"
   inkscape:cy="99.116501"
   inkscape:window-x="-11"
   inkscape:window-y="-11"
   inkscape:window-maximized="1"
   inkscape:current-layer="Capa_1" />

<g
   id="g6">
</g>
<g
   id="g8">
</g>
<g
   id="g10">
</g>
<g
   id="g12">
</g>
<g
   id="g14">
</g>
<g
   id="g16">
</g>
<g
   id="g18">
</g>
<g
   id="g20">
</g>
<g
   id="g22">
</g>
<g
   id="g24">
</g>
<g
   id="g26">
</g>
<g
   id="g28">
</g>
<g
   id="g30">
</g>
<g
   id="g32">
</g>
<g
   id="g34">
</g>
<g
   id="g858"
   transform="rotate(90,99.115956,99.117261)"><g
     style="fill:#e6e6e6;fill-opacity:1;stroke:none;stroke-opacity:1"
     id="g4">
	<path
   style="fill:#e6e6e6;fill-opacity:1;stroke:none;stroke-opacity:1"
   id="path2"
   d="M 197.164,185.409 105.904,5.569 c -1.277,-2.518 -3.861,-4.104 -6.685,-4.106 -10e-4,0 -0.002,0 -0.003,0 -2.822,0 -5.405,1.584 -6.685,4.1 L 0.815,185.87 c -1.382,2.718 -0.982,6.002 1.013,8.308 1.995,2.307 5.188,3.175 8.076,2.197 l 89.202,-30.186 89.202,30.186 c 0.789,0.267 1.6,0.396 2.403,0.396 0.041,0 0.081,0 0.122,-10e-4 4.096,-0.054 7.399,-3.391 7.399,-7.5 0.001,-1.412 -0.389,-2.733 -1.068,-3.861 z M 94.217,152.007 22.53,176.266 94.217,35.335 Z m 10,0.074 V 35.389 l 71.492,140.885 z"
   inkscape:connector-curvature="0" />
</g><path
     inkscape:connector-curvature="0"
     id="path848"
     d="M 39.454409,143.1888 C 48.709376,125.00102 64.691012,93.583646 74.969157,73.372408 l 18.687537,-36.747703 0.215872,57.279099 c 0.11873,31.503506 -0.07026,57.563696 -0.419985,57.911526 -0.349722,0.34784 -15.944317,5.80684 -34.654657,12.13112 -18.710339,6.32428 -34.502982,11.68146 -35.094762,11.90485 -0.59178,0.2234 6.496281,-14.47474 15.751247,-32.6625 z"
     style="opacity:1;fill:#e6e6e6;fill-opacity:1;fill-rule:nonzero;stroke:#e6e6e6;stroke-width:3.1746912;stroke-linecap:round;stroke-linejoin:round;stroke-miterlimit:4;stroke-dasharray:none;stroke-opacity:1" /><path
     inkscape:connector-curvature="0"
     id="path850"
     d="m 139.43508,163.98986 -34.85877,-11.88567 -0.19809,-57.950732 -0.19808,-57.950736 2.54953,4.619837 c 1.40224,2.54091 13.54082,26.354069 26.97463,52.918132 13.43381,26.564059 28.37553,55.952529 33.20383,65.307699 4.82829,9.35516 8.46529,16.96839 8.08222,16.91827 -0.38308,-0.0501 -16.38295,-5.43969 -35.55527,-11.9768 z"
     style="opacity:1;fill:#e6e6e6;fill-opacity:1;fill-rule:nonzero;stroke:#e6e6e6;stroke-width:3.17499995;stroke-linecap:round;stroke-linejoin:round;stroke-miterlimit:4;stroke-dasharray:none;stroke-opacity:1" /></g></svg>