<svg version="1.1" xmlns="http://www.w3.org/2000/svg" xmlns:xlink="http://www.w3.org/1999/xlink" width="864.00006" height="122.00001" viewBox="0,0,864.00006,122.00001"><g id="1 &quot;in. Tick Group" fill="none" fill-rule="nonzero" stroke="none" stroke-width="none" stroke-linecap="butt" stroke-linejoin="miter" stroke-miterlimit="10" stroke-dasharray="" stroke-dashoffset="0" font-family="none" font-weight="none" font-size="none" text-anchor="none" style="mix-blend-mode: normal"><path d="M0,0v57.6" id="1 &quot;in. Tick no. 0" fill="none" stroke="#000000" stroke-width="1"/><text x="4" y="58.6" id="1 &quot;in. label no. 0" fill="#000000" stroke="none" stroke-width="1" font-family="monospace" font-weight="bold" font-size="18" text-anchor="start">0</text><path d="M72,0v57.6" id="1 &quot;in. Tick no. 1" fill="none" stroke="#000000" stroke-width="1"/><text x="76" y="58.6" id="1 &quot;in. label no. 1" fill="#000000" stroke="none" stroke-width="1" font-family="monospace" font-weight="bold" font-size="18" text-anchor="start">1</text><path d="M144,0v57.6" id="1 &quot;in. Tick no. 2" fill="none" stroke="#000000" stroke-width="1"/><text x="148" y="58.6" id="1 &quot;in. label no. 2" fill="#000000" stroke="none" stroke-width="1" font-family="monospace" font-weight="bold" font-size="18" text-anchor="start">2</text><path d="M216,0v57.6" id="1 &quot;in. Tick no. 3" fill="none" stroke="#000000" stroke-width="1"/><text x="220" y="58.6" id="1 &quot;in. label no. 3" fill="#000000" stroke="none" stroke-width="1" font-family="monospace" font-weight="bold" font-size="18" text-anchor="start">3</text><path d="M288,0v57.6" id="1 &quot;in. Tick no. 4" fill="none" stroke="#000000" stroke-width="1"/><text x="292" y="58.6" id="1 &quot;in. label no. 4" fill="#000000" stroke="none" stroke-width="1" font-family="monospace" font-weight="bold" font-size="18" text-anchor="start">4</text><path d="M360,0v57.6" id="1 &quot;in. Tick no. 5" fill="none" stroke="#000000" stroke-width="1"/><text x="364" y="58.6" id="1 &quot;in. label no. 5" fill="#000000" stroke="none" stroke-width="1" font-family="monospace" font-weight="bold" font-size="18" text-anchor="start">5</text><path d="M432,0v57.6" id="1 &quot;in. Tick no. 6" fill="none" stroke="#000000" stroke-width="1"/><text x="436" y="58.6" id="1 &quot;in. label no. 6" fill="#000000" stroke="none" stroke-width="1" font-family="monospace" font-weight="bold" font-size="18" text-anchor="start">6</text><path d="M504,0v57.6" id="1 &quot;in. Tick no. 7" fill="none" stroke="#000000" stroke-width="1"/><text x="508" y="58.6" id="1 &quot;in. label no. 7" fill="#000000" stroke="none" stroke-width="1" font-family="monospace" font-weight="bold" font-size="18" text-anchor="start">7</text><path d="M576,0v57.6" id="1 &quot;in. Tick no. 8" fill="none" stroke="#000000" stroke-width="1"/><text x="580" y="58.6" id="1 &quot;in. label no. 8" fill="#000000" stroke="none" stroke-width="1" font-family="monospace" font-weight="bold" font-size="18" text-anchor="start">8</text><path d="M648,0v57.6" id="1 &quot;in. Tick no. 9" fill="none" stroke="#000000" stroke-width="1"/><text x="652" y="58.6" id="1 &quot;in. label no. 9" fill="#000000" stroke="none" stroke-width="1" font-family="monospace" font-weight="bold" font-size="18" text-anchor="start">9</text><path d="M720,0v57.6" id="1 &quot;in. Tick no. 10" fill="none" stroke="#000000" stroke-width="1"/><text x="724" y="58.6" id="1 &quot;in. label no. 10" fill="#000000" stroke="none" stroke-width="1" font-family="monospace" font-weight="bold" font-size="18" text-anchor="start">10</text><path d="M792,0v57.6" id="1 &quot;in. Tick no. 11" fill="none" stroke="#000000" stroke-width="1"/><text x="796" y="58.6" id="1 &quot;in. label no. 11" fill="#000000" stroke="none" stroke-width="1" font-family="monospace" font-weight="bold" font-size="18" text-anchor="start">11</text><path d="M864,0v57.6" id="1 &quot;in. Tick no. 12" fill="none" stroke="#000000" stroke-width="1"/><text x="860" y="58.6" id="1 &quot;in. label no. 12" fill="#000000" stroke="none" stroke-width="1" font-family="monospace" font-weight="bold" font-size="18" text-anchor="end">12</text></g><g id="1/2 &quot;in. Tick Group" fill="none" fill-rule="nonzero" stroke="#000000" stroke-width="1" stroke-linecap="butt" stroke-linejoin="miter" stroke-miterlimit="10" stroke-dasharray="" stroke-dashoffset="0" font-family="none" font-weight="none" font-size="none" text-anchor="none" style="mix-blend-mode: normal"><path d="M36,0v28.8" id="1/2 &quot;in. Tick no. 1"/><path d="M108,0v28.8" id="1/2 &quot;in. Tick no. 3"/><path d="M180,0v28.8" id="1/2 &quot;in. Tick no. 5"/><path d="M252,0v28.8" id="1/2 &quot;in. Tick no. 7"/><path d="M324,0v28.8" id="1/2 &quot;in. Tick no. 9"/><path d="M396,0v28.8" id="1/2 &quot;in. Tick no. 11"/><path d="M468,0v28.8" id="1/2 &quot;in. Tick no. 13"/><path d="M540,0v28.8" id="1/2 &quot;in. Tick no. 15"/><path d="M612,0v28.8" id="1/2 &quot;in. Tick no. 17"/><path d="M684,0v28.8" id="1/2 &quot;in. Tick no. 19"/><path d="M756,0v28.8" id="1/2 &quot;in. Tick no. 21"/><path d="M828,0v28.8" id="1/2 &quot;in. Tick no. 23"/></g><g id="1/4 &quot;in. Tick Group" fill="none" fill-rule="nonzero" stroke="#000000" stroke-width="1" stroke-linecap="butt" stroke-linejoin="miter" stroke-miterlimit="10" stroke-dasharray="" stroke-dashoffset="0" font-family="none" font-weight="none" font-size="none" text-anchor="none" style="mix-blend-mode: normal"><path d="M18,0v14.4" id="1/4 &quot;in. Tick no. 1"/><path d="M54,0v14.4" id="1/4 &quot;in. Tick no. 3"/><path d="M90,0v14.4" id="1/4 &quot;in. Tick no. 5"/><path d="M126,0v14.4" id="1/4 &quot;in. Tick no. 7"/><path d="M162,0v14.4" id="1/4 &quot;in. Tick no. 9"/><path d="M198,0v14.4" id="1/4 &quot;in. Tick no. 11"/><path d="M234,0v14.4" id="1/4 &quot;in. Tick no. 13"/><path d="M270,0v14.4" id="1/4 &quot;in. Tick no. 15"/><path d="M306,0v14.4" id="1/4 &quot;in. Tick no. 17"/><path d="M342,0v14.4" id="1/4 &quot;in. Tick no. 19"/><path d="M378,0v14.4" id="1/4 &quot;in. Tick no. 21"/><path d="M414,0v14.4" id="1/4 &quot;in. Tick no. 23"/><path d="M450,0v14.4" id="1/4 &quot;in. Tick no. 25"/><path d="M486,0v14.4" id="1/4 &quot;in. Tick no. 27"/><path d="M522,0v14.4" id="1/4 &quot;in. Tick no. 29"/><path d="M558,0v14.4" id="1/4 &quot;in. Tick no. 31"/><path d="M594,0v14.4" id="1/4 &quot;in. Tick no. 33"/><path d="M630,0v14.4" id="1/4 &quot;in. Tick no. 35"/><path d="M666,0v14.4" id="1/4 &quot;in. Tick no. 37"/><path d="M702,0v14.4" id="1/4 &quot;in. Tick no. 39"/><path d="M738,0v14.4" id="1/4 &quot;in. Tick no. 41"/><path d="M774,0v14.4" id="1/4 &quot;in. Tick no. 43"/><path d="M810,0v14.4" id="1/4 &quot;in. Tick no. 45"/><path d="M846,0v14.4" id="1/4 &quot;in. Tick no. 47"/></g><g id="1/8 &quot;in. Tick Group" fill="none" fill-rule="nonzero" stroke="#000000" stroke-width="1" stroke-linecap="butt" stroke-linejoin="miter" stroke-miterlimit="10" stroke-dasharray="" stroke-dashoffset="0" font-family="none" font-weight="none" font-size="none" text-anchor="none" style="mix-blend-mode: normal"><path d="M9,0v7.2" id="1/8 &quot;in. Tick no. 1"/><path d="M27,0v7.2" id="1/8 &quot;in. Tick no. 3"/><path d="M45,0v7.2" id="1/8 &quot;in. Tick no. 5"/><path d="M63,0v7.2" id="1/8 &quot;in. Tick no. 7"/><path d="M81,0v7.2" id="1/8 &quot;in. Tick no. 9"/><path d="M99,0v7.2" id="1/8 &quot;in. Tick no. 11"/><path d="M117,0v7.2" id="1/8 &quot;in. Tick no. 13"/><path d="M135,0v7.2" id="1/8 &quot;in. Tick no. 15"/><path d="M153,0v7.2" id="1/8 &quot;in. Tick no. 17"/><path d="M171,0v7.2" id="1/8 &quot;in. Tick no. 19"/><path d="M189,0v7.2" id="1/8 &quot;in. Tick no. 21"/><path d="M207,0v7.2" id="1/8 &quot;in. Tick no. 23"/><path d="M225,0v7.2" id="1/8 &quot;in. Tick no. 25"/><path d="M243,0v7.2" id="1/8 &quot;in. Tick no. 27"/><path d="M261,0v7.2" id="1/8 &quot;in. Tick no. 29"/><path d="M279,0v7.2" id="1/8 &quot;in. Tick no. 31"/><path d="M297,0v7.2" id="1/8 &quot;in. Tick no. 33"/><path d="M315,0v7.2" id="1/8 &quot;in. Tick no. 35"/><path d="M333,0v7.2" id="1/8 &quot;in. Tick no. 37"/><path d="M351,0v7.2" id="1/8 &quot;in. Tick no. 39"/><path d="M369,0v7.2" id="1/8 &quot;in. Tick no. 41"/><path d="M387,0v7.2" id="1/8 &quot;in. Tick no. 43"/><path d="M405,0v7.2" id="1/8 &quot;in. Tick no. 45"/><path d="M423,0v7.2" id="1/8 &quot;in. Tick no. 47"/><path d="M441,0v7.2" id="1/8 &quot;in. Tick no. 49"/><path d="M459,0v7.2" id="1/8 &quot;in. Tick no. 51"/><path d="M477,0v7.2" id="1/8 &quot;in. Tick no. 53"/><path d="M495,0v7.2" id="1/8 &quot;in. Tick no. 55"/><path d="M513,0v7.2" id="1/8 &quot;in. Tick no. 57"/><path d="M531,0v7.2" id="1/8 &quot;in. Tick no. 59"/><path d="M549,0v7.2" id="1/8 &quot;in. Tick no. 61"/><path d="M567,0v7.2" id="1/8 &quot;in. Tick no. 63"/><path d="M585,0v7.2" id="1/8 &quot;in. Tick no. 65"/><path d="M603,0v7.2" id="1/8 &quot;in. Tick no. 67"/><path d="M621,0v7.2" id="1/8 &quot;in. Tick no. 69"/><path d="M639,0v7.2" id="1/8 &quot;in. Tick no. 71"/><path d="M657,0v7.2" id="1/8 &quot;in. Tick no. 73"/><path d="M675,0v7.2" id="1/8 &quot;in. Tick no. 75"/><path d="M693,0v7.2" id="1/8 &quot;in. Tick no. 77"/><path d="M711,0v7.2" id="1/8 &quot;in. Tick no. 79"/><path d="M729,0v7.2" id="1/8 &quot;in. Tick no. 81"/><path d="M747,0v7.2" id="1/8 &quot;in. Tick no. 83"/><path d="M765,0v7.2" id="1/8 &quot;in. Tick no. 85"/><path d="M783,0v7.2" id="1/8 &quot;in. Tick no. 87"/><path d="M801,0v7.2" id="1/8 &quot;in. Tick no. 89"/><path d="M819,0v7.2" id="1/8 &quot;in. Tick no. 91"/><path d="M837,0v7.2" id="1/8 &quot;in. Tick no. 93"/><path d="M855,0v7.2" id="1/8 &quot;in. Tick no. 95"/></g></svg>